<svg width="35" height="29" viewBox="0 0 35 29" fill="none" xmlns="http://www.w3.org/2000/svg">
<path d="M0 3.10277L2.62123 0.775694L5.50459 0V7.75692L0 9.30831V3.10277Z" fill="#312F32"/>
<path d="M34.2508 3.10277L31.6295 0.775694L28.7462 0V7.75692L34.2508 9.30831V3.10277Z" fill="#312F32"/>
<path d="M33.5939 7.39816L29.777 6.20557L29.777 7.21714L33.5939 8.46362L33.5939 7.39816Z" fill="#DBDAD8"/>
<path fill-rule="evenodd" clip-rule="evenodd" d="M5.50459 0H12.2399C12.3816 2.43872 14.5147 4.37491 17.1254 4.37491C19.7361 4.37491 21.8692 2.43872 22.0109 0H28.8379V28.9592H17.4312L5.50459 24.5636V0Z" fill="#312F32"/>
<path d="M17.5237 26.7747L6.63525 22.7537L7.00331 23.9469L17.8917 27.9679L17.5237 26.7747Z" fill="#DBDAD8"/>
</svg>
