<svg width="26" height="25" viewBox="0 0 26 25" fill="none" xmlns="http://www.w3.org/2000/svg">
<path fill-rule="evenodd" clip-rule="evenodd" d="M4.76837e-06 3.69531C2.36453 3.69531 4.28135 2.04086 4.28135 0H11.0092V24.2835L0 20.3242L0 3.69531C1.58946e-06 3.69531 3.17891e-06 3.69531 4.76837e-06 3.69531Z" fill="#312F32"/>
<path fill-rule="evenodd" clip-rule="evenodd" d="M20.7951 0H14.0673V24.2835H25.0765V3.69531C22.7119 3.69531 20.7951 2.04086 20.7951 0Z" fill="#312F32"/>
<path fill-rule="evenodd" clip-rule="evenodd" d="M18.3505 0.527954C18.3493 0.569559 18.3486 0.611297 18.3486 0.653162C18.3486 3.27713 20.8131 5.40428 23.8532 5.40428C24.1115 5.40428 24.3656 5.38892 24.6144 5.35922L23.258 4.31305C21.5296 4.10557 20.1314 3.00747 19.7056 1.57312L18.3505 0.527954Z" fill="#DBDAD8"/>
<rect x="8.56269" width="10.3976" height="17.4208" fill="#312F32"/>
<path d="M1.0879 18.7768L9.65059 21.9442L9.65057 23L1.0879 19.8326L1.0879 18.7768Z" fill="#DBDAD8"/>
</svg>
