<svg width="56" height="56" viewBox="0 0 56 56" fill="none" xmlns="http://www.w3.org/2000/svg">
<path d="M0 6L4.28571 1.5L9 0V15L0 18V6Z" fill="#C4C4C4"/>
<path d="M56 6L51.7143 1.5L47 0V15L56 18V6Z" fill="#C4C4C4"/>
<path d="M54.9261 14.3062L48.6855 12L48.6855 13.9561L54.9261 16.3665L54.9261 14.3062Z" fill="#DBDAD8"/>
<path fill-rule="evenodd" clip-rule="evenodd" d="M20.0122 0H9V47.5L28.5 56H47.15V0H35.9878C35.7562 4.71589 32.2685 8.46 28 8.46C23.7315 8.46 20.2438 4.71589 20.0122 0ZM10.8486 44L28.6512 51.7756L29.253 54.083L11.4504 46.3074L10.8486 44Z" fill="#909090"/>
</svg>
